<svg xmlns="http://www.w3.org/2000/svg" viewBox="0 0 100 100">
  <!-- Fond carré arrondi marron Kori -->
  <rect width="100" height="100" rx="18" fill="#5c3a1e"/>
  <!-- Cauri gauche (or) -->
  <path d="M49 12C31 12 27 37 27 55c0 18 6.5 40 23 40C43 81 44.5 61 43 46c-1.4-13.5-0.5-22 6-34Z" fill="#e5a900"/>
  <!-- Cauri droite (or) -->
  <path d="M51 12c6.5 12 7.4 20.5 6 34c-1.5 15 0 35-6 49c16.5 0 23-22 23-40C74 37 69 12 51 12Z" fill="#e5a900"/>
  <!-- Ligne centrale blanche (motif cauri) -->
  <path d="M50 14c-2 7-1 10-3 13c2 3 0.5 6-0.5 9c2 3 0.5 6-1 9c2 3 0.5 6-0.5 9c2 3 0 6 1 9c-1.5 3 1 6-1 9c0.5 3-1 6-2.5 10c4-6 2.5-9 4-12c-1-3 1-6 2-9c-1.5-3 0.5-6 1-9c-1.5-3 0.5-6 1-9c-1-3 0.5-6 1.5-9c-1.5-3 0.5-6-1-9c1-3-0.5-6-2-9c1.5-3 0-6-0.5-9c1.5-3 0.5-5-1-8" fill="rgba(255,255,255,0.55)" stroke="none"/>
</svg>
